<?xml version="1.0" encoding="UTF-8"?>
<svg viewBox="0 0 331 141" version="1.1" xmlns="http://www.w3.org/2000/svg" xmlns:xlink="http://www.w3.org/1999/xlink">
    <title>Group 3</title>
    <defs>
        <linearGradient x1="0%" y1="59.1045162%" x2="100%" y2="59.1045162%" id="linearGradient-1">
            <stop stop-color="#98A0AB" offset="0%"></stop>
            <stop stop-color="#FFFFFF" offset="100%"></stop>
        </linearGradient>
        <linearGradient x1="0%" y1="58.8449965%" x2="100%" y2="58.8449965%" id="linearGradient-2">
            <stop stop-color="#61646E" offset="0%"></stop>
            <stop stop-color="#959AA7" offset="100%"></stop>
        </linearGradient>
    </defs>
    <g id="Page-1" stroke="none" stroke-width="1" fill="none" fill-rule="evenodd">
        <path d="M173.728271,140 L173.728271,68.515625 L174.346,68.516 L202.878662,140 L216.794678,140 L245.327,68.516 L245.945068,68.515625 L245.945068,140 L265.647217,140 L265.647217,34.3115234 L240.085693,34.3115234 L210.056396,110.263672 L209.616943,110.263672 L179.587646,34.3115234 L154.026123,34.3115234 L154.026123,140 L173.728271,140 Z M330.576416,140 L330.576416,34.3115234 L308.60376,34.3115234 L281.284424,53.28125 L281.284424,72.9101562 L308.237549,54.5996094 L308.677002,54.5996094 L308.677002,140 L330.576416,140 Z" id="M1" fill="url(#linearGradient-1)"></path>
        <path d="M58.3955933,40.4894602 C52.8191807,40.4894602 44.1871997,34.1555295 35.0968834,34.3844667 C23.1037769,34.5370916 12.1037303,41.3288968 5.91620406,52.0889478 C-6.53523763,73.6853622 2.70785712,105.583953 14.853742,123.135809 C20.8121006,131.6828 27.8399081,141.298165 37.1593921,140.992915 C46.09693,140.611353 49.4580554,135.193171 60.3053236,135.193171 C71.0762026,135.193171 74.1317711,140.992915 83.6040335,140.763978 C93.2290743,140.611353 99.3402114,132.064362 105.222181,123.441059 C112.020821,113.520445 114.847222,103.90508 115,103.370893 C114.770832,103.294581 96.2846429,96.1975256 96.0554752,74.8300485 C95.9026968,56.9729426 110.645815,48.4259517 111.333318,48.0443896 C102.930504,35.7580902 90.0207274,34.3844667 85.5137638,34.079217 C73.7498251,33.163468 63.8956166,40.4894602 58.3955933,40.4894602 Z M79.6685355,22.1229538 C84.5308083,16.2734948 87.7473888,8.09925088 86.8497384,0 C79.8929481,0.299972255 71.5148779,4.64956995 66.5029967,10.4990289 C62.0147449,15.6735503 58.1249266,23.9977804 59.1721853,31.9470451 C66.8770177,32.5469897 74.8062626,27.9724128 79.6685355,22.1229538 L79.6685355,22.1229538 Z" id="Shape" fill="url(#linearGradient-2)"></path>
    </g>
</svg>