<?xml version="1.0" encoding="UTF-8"?>
<svg width="341px" height="433px" viewBox="0 0 341 433" version="1.1" xmlns="http://www.w3.org/2000/svg" xmlns:xlink="http://www.w3.org/1999/xlink">
    <title>Larger</title>
    <g id="Page-1" stroke="none" stroke-width="1" fill="none" fill-rule="evenodd">
        <g id="isometric-grid---1600-*-1200" transform="translate(-74.000000, -228.000000)" fill="#084F30">
            <g id="Larger" transform="translate(74.500000, 228.991005)">
                <path d="M204,2.84217094e-14 L340,78.4264519 L340,314.325507 L272.01,353.522 L340,392.556698 L272,431.871546 L204,392.737325 L272,353.516583 L272,275.016097 L204,314.005119 L204,392.787392 L136,431.871546 L0,353.331208 L0.120361902,117.727033 L68,78.4264519 L136,117.871444 L68,156.873853 L68,314.005119 L136,353.331208 L136,196.523145 L204,156.873853 L204,235.533941 L272,196.523145 L272,117.561355 L136,39.3648744 L204,2.84217094e-14 Z" id="Combined-Shape"></path>
            </g>
        </g>
    </g>
</svg>